HIERARCHY
ROOT Hips
{
  OFFSET 91.2244 90.026 26.1335
  CHANNELS 6 Xposition Yposition Zposition Zrotation Xrotation Yrotation
  JOINT RightUpLeg
  {
    OFFSET -9.26543 -1.55198 -0.00276407
    CHANNELS 3 Zrotation Xrotation Yrotation
    JOINT RightLeg
    {
      OFFSET 0.00706465 -41.889 0.0798854
      CHANNELS 3 Zrotation Xrotation Yrotation
      JOINT RightFoot
      {
        OFFSET -1.51766 -41.6901 -0.263239
        CHANNELS 3 Zrotation Xrotation Yrotation
        End Site
        {
          OFFSET 0 -7.69 17.5
        }
      }
    }
  }
  JOINT LeftUpLeg
  {
    OFFSET 9.33035 -1.6331 0.002402
    CHANNELS 3 Zrotation Xrotation Yrotation
    JOINT LeftLeg
    {
      OFFSET 0.0774 -41.8788 0.006528
      CHANNELS 3 Zrotation Xrotation Yrotation
      JOINT LeftFoot
      {
        OFFSET 0.406189 -42.2791 -0.67832
        CHANNELS 3 Zrotation Xrotation Yrotation
        End Site
        {
          OFFSET 0 -7.69 17.5
        }
      }
    }
  }
  JOINT Spine
  {
    OFFSET 0.0210118 14.3125 0.030377
    CHANNELS 3 Zrotation Xrotation Yrotation
    JOINT Spine1
    {
      OFFSET -2.02627e-05 9.71981 0.0121962
      CHANNELS 3 Zrotation Xrotation Yrotation
      JOINT Spine2
      {
        OFFSET 0.023812 10.122 0.0180119
        CHANNELS 3 Zrotation Xrotation Yrotation
        JOINT Spine3
        {
          OFFSET 0.00443321 9.71861 0.0143853
          CHANNELS 3 Zrotation Xrotation Yrotation
          JOINT Neck
          {
            OFFSET -0.025003 10.3767 0.0233355
            CHANNELS 3 Zrotation Xrotation Yrotation
            JOINT Head
            {
              OFFSET -0.00975384 9.4764 0.045578
              CHANNELS 3 Zrotation Xrotation Yrotation
              End Site
              {
                OFFSET 0 15.95 0
              }
            }
          }
          JOINT RightShoulder
          {
            OFFSET -3.18407 6.9358 0.0313291
            CHANNELS 3 Zrotation Xrotation Yrotation
            JOINT RightArm
            {
              OFFSET -12.7601 0.0147069 0.0234973
              CHANNELS 3 Zrotation Xrotation Yrotation
              JOINT RightForeArm
              {
                OFFSET -26.4708 -0.032683 0.042111
                CHANNELS 3 Zrotation Xrotation Yrotation
                JOINT RightHand
                {
                  OFFSET -26.0234 -0.0283521 0.00388791
                  CHANNELS 3 Zrotation Xrotation Yrotation
                  JOINT RightHandThumb1
                  {
                    OFFSET -2.48905 0.190105 3.12053
                    CHANNELS 3 Zrotation Xrotation Yrotation
                    JOINT RightHandThumb2
                    {
                      OFFSET -3.68274 0 0
                      CHANNELS 3 Zrotation Xrotation Yrotation
                      JOINT RightHandThumb3
                      {
                        OFFSET -2.55832 0 0
                        CHANNELS 3 Zrotation Xrotation Yrotation
                        End Site
                        {
                          OFFSET -2.194 0 0
                        }
                      }
                    }
                  }
                  JOINT RightInHandIndex
                  {
                    OFFSET -3.22368 0.508421 1.97842
                    CHANNELS 3 Zrotation Xrotation Yrotation
                    JOINT RightHandIndex1
                    {
                      OFFSET -5.21684 -0.091368 0.999158
                      CHANNELS 3 Zrotation Xrotation Yrotation
                      JOINT RightHandIndex2
                      {
                        OFFSET -3.61937 0 0
                        CHANNELS 3 Zrotation Xrotation Yrotation
                        JOINT RightHandIndex3
                        {
                          OFFSET -2.0521 0 0
                          CHANNELS 3 Zrotation Xrotation Yrotation
                          End Site
                          {
                            OFFSET -1.805 0 0
                          }
                        }
                      }
                    }
                  }
                  JOINT RightInHandMiddle
                  {
                    OFFSET -3.38211 0.517263 0.756737
                    CHANNELS 3 Zrotation Xrotation Yrotation
                    JOINT RightHandMiddle1
                    {
                      OFFSET -5.17411 -0.084 0.313895
                      CHANNELS 3 Zrotation Xrotation Yrotation
                      JOINT RightHandMiddle2
                      {
                        OFFSET -3.94947 0 0
                        CHANNELS 3 Zrotation Xrotation Yrotation
                        JOINT RightHandMiddle3
                        {
                          OFFSET -2.47579 0 0
                          CHANNELS 3 Zrotation Xrotation Yrotation
                          End Site
                          {
                            OFFSET -1.975 0 0
                          }
                        }
                      }
                    }
                  }
                  JOINT RightInHandRing
                  {
                    OFFSET -3.36516 0.537895 -0.128947
                    CHANNELS 3 Zrotation Xrotation Yrotation
                    JOINT RightHandRing1
                    {
                      OFFSET -4.63474 -0.022105 -0.478947
                      CHANNELS 3 Zrotation Xrotation Yrotation
                      JOINT RightHandRing2
                      {
                        OFFSET -3.44238 0 0
                        CHANNELS 3 Zrotation Xrotation Yrotation
                        JOINT RightHandRing3
                        {
                          OFFSET -2.3881 0 0
                          CHANNELS 3 Zrotation Xrotation Yrotation
                          End Site
                          {
                            OFFSET -1.857 0 0
                          }
                        }
                      }
                    }
                  }
                  JOINT RightInHandPinky
                  {
                    OFFSET -3.16105 0.469368 -1.20179
                    CHANNELS 3 Zrotation Xrotation Yrotation
                    JOINT RightHandPinky1
                    {
                      OFFSET -4.14105 -0.022105 -1.09053
                      CHANNELS 3 Zrotation Xrotation Yrotation
                      JOINT RightHandPinky2
                      {
                        OFFSET -2.75653 0 0
                        CHANNELS 3 Zrotation Xrotation Yrotation
                        JOINT RightHandPinky3
                        {
                          OFFSET -1.74189 0 0
                          CHANNELS 3 Zrotation Xrotation Yrotation
                          End Site
                          {
                            OFFSET -1.645 0 0
                          }
                        }
                      }
                    }
                  }
                }
              }
            }
          }
          JOINT LeftShoulder
          {
            OFFSET 3.21192 6.92101 0.01407
            CHANNELS 3 Zrotation Xrotation Yrotation
            JOINT LeftArm
            {
              OFFSET 12.7303 -0.00466279 0.011464
              CHANNELS 3 Zrotation Xrotation Yrotation
              JOINT LeftForeArm
              {
                OFFSET 26.497 -0.127446 0.0273404
                CHANNELS 3 Zrotation Xrotation Yrotation
                JOINT LeftHand
                {
                  OFFSET 26.0093 -0.0453415 -0.0774742
                  CHANNELS 3 Zrotation Xrotation Yrotation
                  JOINT LeftHandThumb1
                  {
                    OFFSET 2.48905 0.190105 3.12053
                    CHANNELS 3 Zrotation Xrotation Yrotation
                    JOINT LeftHandThumb2
                    {
                      OFFSET 3.68274 0 0
                      CHANNELS 3 Zrotation Xrotation Yrotation
                      JOINT LeftHandThumb3
                      {
                        OFFSET 2.55832 0 0
                        CHANNELS 3 Zrotation Xrotation Yrotation
                        End Site
                        {
                          OFFSET 2.194 0 0
                        }
                      }
                    }
                  }
                  JOINT LeftInHandIndex
                  {
                    OFFSET 3.22368 0.508421 1.97842
                    CHANNELS 3 Zrotation Xrotation Yrotation
                    JOINT LeftHandIndex1
                    {
                      OFFSET 5.21684 -0.091368 0.999158
                      CHANNELS 3 Zrotation Xrotation Yrotation
                      JOINT LeftHandIndex2
                      {
                        OFFSET 3.61937 0 0
                        CHANNELS 3 Zrotation Xrotation Yrotation
                        JOINT LeftHandIndex3
                        {
                          OFFSET 2.0521 0 0
                          CHANNELS 3 Zrotation Xrotation Yrotation
                          End Site
                          {
                            OFFSET 1.805 0 0
                          }
                        }
                      }
                    }
                  }
                  JOINT LeftInHandMiddle
                  {
                    OFFSET 3.38211 0.517263 0.756737
                    CHANNELS 3 Zrotation Xrotation Yrotation
                    JOINT LeftHandMiddle1
                    {
                      OFFSET 5.17411 -0.084 0.313895
                      CHANNELS 3 Zrotation Xrotation Yrotation
                      JOINT LeftHandMiddle2
                      {
                        OFFSET 3.94947 0 0
                        CHANNELS 3 Zrotation Xrotation Yrotation
                        JOINT LeftHandMiddle3
                        {
                          OFFSET 2.47579 0 0
                          CHANNELS 3 Zrotation Xrotation Yrotation
                          End Site
                          {
                            OFFSET 1.975 0 0
                          }
                        }
                      }
                    }
                  }
                  JOINT LeftInHandRing
                  {
                    OFFSET 3.36516 0.537895 -0.128947
                    CHANNELS 3 Zrotation Xrotation Yrotation
                    JOINT LeftHandRing1
                    {
                      OFFSET 4.63474 -0.022105 -0.478947
                      CHANNELS 3 Zrotation Xrotation Yrotation
                      JOINT LeftHandRing2
                      {
                        OFFSET 3.44238 0 0
                        CHANNELS 3 Zrotation Xrotation Yrotation
                        JOINT LeftHandRing3
                        {
                          OFFSET 2.3881 0 0
                          CHANNELS 3 Zrotation Xrotation Yrotation
                          End Site
                          {
                            OFFSET 1.857 0 0
                          }
                        }
                      }
                    }
                  }
                  JOINT LeftInHandPinky
                  {
                    OFFSET 3.16105 0.469368 -1.20179
                    CHANNELS 3 Zrotation Xrotation Yrotation
                    JOINT LeftHandPinky1
                    {
                      OFFSET 4.14105 -0.022105 -1.09053
                      CHANNELS 3 Zrotation Xrotation Yrotation
                      JOINT LeftHandPinky2
                      {
                        OFFSET 2.75653 0 0
                        CHANNELS 3 Zrotation Xrotation Yrotation
                        JOINT LeftHandPinky3
                        {
                          OFFSET 1.74189 0 0
                          CHANNELS 3 Zrotation Xrotation Yrotation
                          End Site
                          {
                            OFFSET 1.645 0 0
                          }
                        }
                      }
                    }
                  }
                }
              }
            }
          }
        }
      }
    }
  }
}
MOTION
Frames: 3
Frame Time: 0.00833333
4.500136561713188144e+02 1.453000366181996048e-03 -1.345173284546828836e-02 1.038720152351169362e-03 1.012747806725470320e-03 -1.760411703013469442e-01 1.973893520164551885e-01 6.674322808483794389e-02 1.367780279034358504e-01 -4.150902741554995945e-02 -1.022498591060914952e-02 1.625271363119361323e-01 -2.595995155668732058e-03 -1.306196568253360606e-02 -5.381135833478235819e-02 7.727684710048214611e-02 9.364836835009217320e-02 1.683096184306883958e-01 2.768436691719331974e-02 3.190209433359179891e-02 -2.240189413772537136e-02 4.258303771011742907e-03 -1.397347989215870674e-02 1.589052183539001574e-03 -7.536801158942331609e-03 -4.050105542343471199e-02 -1.511753848740499950e-01 -2.549018452248980569e-03 2.418484641566117331e-03 -3.656012828103591406e-02 -4.667288248460390622e-03 -4.321732839695251703e-03 -5.635047028365255256e-02 -6.652332660875532417e-04 -1.199156864551604836e-03 1.440116044852167779e-02 -7.564870878965703621e-03 2.919246166006677495e-02 4.258734793323973311e-01 -1.828989560486630681e-02 1.579088469069332180e-03 4.125152562374250625e-02 -6.898059221495425608e-02 9.774497809986605612e-02 3.826149642391602490e-01 1.450660586273984087e-01 -1.666093797605873172e-01 2.143341659439954028e-01 2.237471259669349677e-01 4.459624476966120299e-01 -1.364401813831888632e-01 1.028234410545753874e-01 5.550098630189342908e-02 2.429460339360672294e-01 0.000000000000000000e+00 0.000000000000000000e+00 0.000000000000000000e+00 3.468443690663375754e-15 3.347699099261372584e-16 0.000000000000000000e+00 -3.206157747438202637e-15 -3.463840050903780867e-15 0.000000000000000000e+00 -1.162435509962300566e-15 -1.399524193997351621e-15 -4.033033315239711337e-15 0.000000000000000000e+00 0.000000000000000000e+00 0.000000000000000000e+00 0.000000000000000000e+00 7.074001100652680607e-15 -5.520155021096827330e-16 0.000000000000000000e+00 1.822595545118159617e-15 -4.459772151540500096e-15 -1.162435509962300566e-15 -1.399524193997351621e-15 -4.033033315239711337e-15 0.000000000000000000e+00 -5.569545849969746304e-15 9.236350601339639827e-15 0.000000000000000000e+00 2.296501647390334374e-15 -7.830452145124590793e-15 0.000000000000000000e+00 -3.868737454818968889e-17 -6.649707970907206710e-15 -1.162435509962300566e-15 -1.399524193997351621e-15 -4.033033315239711337e-15 0.000000000000000000e+00 0.000000000000000000e+00 0.000000000000000000e+00 0.000000000000000000e+00 1.316826665872837467e-15 -1.908921608381310642e-15 0.000000000000000000e+00 -4.559932017755482816e-15 -4.144007345007935691e-15 -1.162435509962300566e-15 -1.399524193997351621e-15 -4.033033315239711337e-15 0.000000000000000000e+00 0.000000000000000000e+00 0.000000000000000000e+00 0.000000000000000000e+00 -1.547784916304002242e-15 3.521476301012857621e-15 0.000000000000000000e+00 1.516694759236845636e-15 -1.146962723434375201e-14 7.244653938583511810e-02 -3.413503568506093266e-02 3.859858143974885247e-01 2.158470720212219557e-02 -1.075072337751184770e-01 -2.859971120891677265e-01 -1.325201139454036170e+00 1.924507330442101205e-01 -1.105239887162672963e+00 -8.995548304398594264e-02 1.947398070667528680e-01 -4.580801905281770559e-01 0.000000000000000000e+00 0.000000000000000000e+00 0.000000000000000000e+00 -7.337591715082195231e-15 2.130017500119210988e-15 0.000000000000000000e+00 4.206715729931417053e-15 -1.367933001886279405e-15 0.000000000000000000e+00 -2.993191369928967986e-15 -3.717787857208442287e-17 1.591953335520186866e-15 0.000000000000000000e+00 0.000000000000000000e+00 0.000000000000000000e+00 0.000000000000000000e+00 -4.132393392399652814e-15 6.966914529433138174e-15 0.000000000000000000e+00 1.896852740091071573e-15 4.179189047679924724e-15 -2.993191369928967986e-15 -3.717787857208442287e-17 1.591953335520186866e-15 0.000000000000000000e+00 -1.968278413712160114e-15 7.113833225866930604e-15 0.000000000000000000e+00 -3.443101361035020641e-15 9.414594558300437612e-15 0.000000000000000000e+00 -8.792805556212362066e-16 1.853128434430825502e-15 -2.993191369928967986e-15 -3.717787857208442287e-17 1.591953335520186866e-15 0.000000000000000000e+00 0.000000000000000000e+00 0.000000000000000000e+00 0.000000000000000000e+00 -1.174023084027597324e-15 5.221235130771889850e-15 0.000000000000000000e+00 -6.583994443096580705e-16 3.615141299206317155e-15 -2.993191369928967986e-15 -3.717787857208442287e-17 1.591953335520186866e-15 0.000000000000000000e+00 0.000000000000000000e+00 0.000000000000000000e+00 0.000000000000000000e+00 -2.552195503956468326e-15 7.444055687375205459e-15 0.000000000000000000e+00 -1.935088788360389956e-15 2.180870172728804219e-15
4.500154576730886333e+02 1.314498107160514285e-03 -1.624518622488482084e-02 4.339375429115862985e-03 4.899141243144704110e-03 -1.734918935901325343e-01 1.942449998757524998e-01 6.926708733794388617e-02 1.564870230591224876e-01 -3.637051681990554480e-02 -1.137670917967728915e-02 1.530456472876599583e-01 2.735939216029705141e-03 -1.657822759167276727e-02 -7.103898262979750633e-02 8.288828745550692878e-02 8.400695787863809993e-02 1.906651570287262731e-01 4.883471428138379256e-02 4.215746444683649008e-02 -4.911926180267823377e-02 1.591079631443683600e-03 -1.442297603072766055e-02 -1.366164666501669183e-03 -5.990222307944779827e-03 -4.159488516268936009e-02 -1.661147707429738718e-01 -2.726150687414652211e-03 4.936088404791877902e-03 -3.995869192002134834e-02 -4.608306968688701682e-03 -4.578975884796383615e-03 -6.236532982511588247e-02 -4.820835040670157332e-04 -1.280955982391758291e-03 1.402426688828047399e-02 -4.872877856092071649e-03 3.412774454142258884e-02 4.467161905867191307e-01 -2.581119878297461270e-02 1.437851630319444182e-03 3.590046609888240120e-02 -7.891467052765657741e-02 9.733752574396339896e-02 3.938124797637506114e-01 1.969590871105887375e-01 -1.869128539904376940e-01 2.218246453647284289e-01 2.337914910824749892e-01 4.593553885514086166e-01 -4.044011608133820518e-02 1.044654531287808052e-01 7.959210697009415358e-02 1.459324995509860279e-01 0.000000000000000000e+00 0.000000000000000000e+00 0.000000000000000000e+00 3.082682231361803702e-15 1.313527016866072079e-16 0.000000000000000000e+00 -4.016710211060201157e-15 -4.435384716235959499e-15 0.000000000000000000e+00 -1.228909044995448134e-15 -2.336673758126720286e-15 -4.229016199401586813e-15 0.000000000000000000e+00 0.000000000000000000e+00 0.000000000000000000e+00 0.000000000000000000e+00 6.611212719624708005e-15 6.391706072474555290e-16 0.000000000000000000e+00 1.103105218825360439e-15 -5.417805526545981588e-15 -1.228909044995448134e-15 -2.336673758126720286e-15 -4.229016199401586813e-15 0.000000000000000000e+00 -5.217600501056685620e-15 8.601298671537067668e-15 0.000000000000000000e+00 1.411930265389715037e-15 -9.301064696187356020e-15 0.000000000000000000e+00 -5.512725079820935323e-16 -8.053703091900137280e-15 -1.228909044995448134e-15 -2.336673758126720286e-15 -4.229016199401586813e-15 0.000000000000000000e+00 0.000000000000000000e+00 0.000000000000000000e+00 0.000000000000000000e+00 1.275732263541712234e-15 -4.183118424549731121e-15 0.000000000000000000e+00 -3.575770139489435118e-15 -7.685353668254718084e-15 -1.228909044995448134e-15 -2.336673758126720286e-15 -4.229016199401586813e-15 0.000000000000000000e+00 0.000000000000000000e+00 0.000000000000000000e+00 0.000000000000000000e+00 -6.984935785159119190e-16 6.414702748835603818e-16 0.000000000000000000e+00 2.935780905836419342e-15 -1.090556990834658723e-14 7.564776726087267533e-02 -3.636670091208077382e-02 4.060085797306628441e-01 3.020485415382374167e-02 -1.428876761477131385e-01 -3.095171794452525327e-01 -1.571130183560157656e+00 2.050176497157082667e-01 -1.272773983862531377e+00 4.487609048305414572e-02 1.528649405915382398e-01 -4.322835595813554477e-01 0.000000000000000000e+00 0.000000000000000000e+00 0.000000000000000000e+00 -6.434731504697666754e-15 1.028947324678268379e-15 0.000000000000000000e+00 3.928522724860850939e-15 -7.289525642735952577e-16 0.000000000000000000e+00 -2.928846546147951262e-15 -3.520922768383761240e-17 1.837975525118566540e-15 0.000000000000000000e+00 0.000000000000000000e+00 0.000000000000000000e+00 0.000000000000000000e+00 -4.553010987907775240e-15 7.934084262989264311e-15 0.000000000000000000e+00 1.726183832997230346e-15 4.899799838224725027e-15 -2.928846546147951262e-15 -3.520922768383761240e-17 1.837975525118566540e-15 0.000000000000000000e+00 -1.773184389168701879e-15 8.782061473737625625e-15 0.000000000000000000e+00 -3.382135656116542447e-15 1.077208726144057122e-14 0.000000000000000000e+00 -1.515354148435383638e-15 2.460085707643948665e-15 -2.928846546147951262e-15 -3.520922768383761240e-17 1.837975525118566540e-15 0.000000000000000000e+00 0.000000000000000000e+00 0.000000000000000000e+00 0.000000000000000000e+00 -1.322120232290530049e-15 6.091542093827573618e-15 0.000000000000000000e+00 -8.731102848744973080e-16 4.686024170546111451e-15 -2.928846546147951262e-15 -3.520922768383761240e-17 1.837975525118566540e-15 0.000000000000000000e+00 0.000000000000000000e+00 0.000000000000000000e+00 0.000000000000000000e+00 -3.094159244741403418e-15 8.453442679728152092e-15 0.000000000000000000e+00 -2.222196263082077567e-15 3.248688712836088840e-15
4.500172808367317430e+02 9.482058009682111689e-04 -1.839069577041279463e-02 7.663180050370146761e-03 8.745908276412769564e-03 -1.580904087102021904e-01 1.768855596986476653e-01 6.604140948496477204e-02 1.655828819480385239e-01 -2.890491958890336818e-02 -1.049847199777128107e-02 1.310063716927665767e-01 8.326242627994905401e-03 -1.945875742642591902e-02 -8.266911153913833465e-02 8.240410773881803874e-02 7.121615642365621002e-02 1.915799656450298261e-01 6.015580732205517978e-02 4.649411475208235778e-02 -6.308797939716369318e-02 -1.652311941080065495e-03 -1.361398314182324550e-02 -5.115053010732071095e-03 -5.927572189997629484e-03 -3.732571216834353750e-02 -1.517470456223687647e-01 -2.953617850240690748e-03 8.247208271709041347e-03 -3.595495903743305133e-02 -4.809449891369159402e-03 -3.950419632194112317e-03 -5.703766425589271161e-02 -7.774055581327094845e-05 -1.397650081544902188e-03 1.190033005688712411e-02 -1.555836374003415805e-03 3.562068326460392925e-02 4.235330741532845611e-01 -2.583305949224564552e-02 -2.742329059158018709e-03 1.463902183924827710e-02 -8.490753338178949616e-02 8.798585798615278508e-02 3.512697165098317975e-01 2.340805435141856128e-01 -1.952572453931029073e-01 1.977274638761241932e-01 2.376102648891582902e-01 4.522205464729346369e-01 9.419561096100652342e-02 9.929835484431534520e-02 1.003215462598574387e-01 2.721262483839983343e-02 0.000000000000000000e+00 0.000000000000000000e+00 0.000000000000000000e+00 2.419454419334997251e-15 -3.486305226402886682e-16 0.000000000000000000e+00 -4.341695258014104588e-15 -4.996180452843708452e-15 0.000000000000000000e+00 -1.060308231450713617e-15 -2.874613474386757429e-15 -3.969558351413735830e-15 0.000000000000000000e+00 0.000000000000000000e+00 0.000000000000000000e+00 0.000000000000000000e+00 5.592124074783198043e-15 1.264130979520493970e-15 0.000000000000000000e+00 5.472625693502183025e-16 -6.163789791982638548e-15 -1.060308231450713617e-15 -2.874613474386757429e-15 -3.969558351413735830e-15 0.000000000000000000e+00 -4.210543926943182987e-15 6.580382890663851815e-15 0.000000000000000000e+00 1.010014472970522818e-17 -9.838481684687628605e-15 0.000000000000000000e+00 -1.065979027087531844e-15 -8.445964048930077957e-15 -1.060308231450713617e-15 -2.874613474386757429e-15 -3.969558351413735830e-15 0.000000000000000000e+00 0.000000000000000000e+00 0.000000000000000000e+00 0.000000000000000000e+00 1.106530396336392875e-15 -6.056787653769758780e-15 0.000000000000000000e+00 -2.179609338730369051e-15 -1.027998472137014509e-14 -1.060308231450713617e-15 -2.874613474386757429e-15 -3.969558351413735830e-15 0.000000000000000000e+00 0.000000000000000000e+00 0.000000000000000000e+00 0.000000000000000000e+00 4.655542074757019733e-16 -2.226224245357597885e-15 0.000000000000000000e+00 3.733753144074199748e-15 -9.383218204622817774e-15 7.045701276128951696e-02 -3.937126675661960923e-02 3.689517026292670754e-01 1.086641565265318923e-02 -1.634936325774245247e-01 -2.722271541464261202e-01 -1.791053355084931020e+00 2.228660016856592319e-01 -1.466380116664608213e+00 1.968016008038263598e-01 1.003286121985919738e-01 -3.442716869520531797e-01 0.000000000000000000e+00 0.000000000000000000e+00 0.000000000000000000e+00 -4.938361444027060551e-15 -2.888257233385541454e-16 0.000000000000000000e+00 3.307957818954225058e-15 -7.459674581569099017e-17 0.000000000000000000e+00 -2.430818776888784800e-15 1.362147343357611771e-17 1.853129909039024452e-15 0.000000000000000000e+00 0.000000000000000000e+00 0.000000000000000000e+00 0.000000000000000000e+00 -4.345905791892281298e-15 7.801334562978281304e-15 0.000000000000000000e+00 1.254200888576533022e-15 4.996301880422285141e-15 -2.430818776888784800e-15 1.362147343357611771e-17 1.853129909039024452e-15 0.000000000000000000e+00 -1.460707095844603745e-15 9.250929942250874015e-15 0.000000000000000000e+00 -2.867149161870541664e-15 1.056184224714531517e-14 0.000000000000000000e+00 -1.822421286087165013e-15 2.603600943907334730e-15 -2.430818776888784800e-15 1.362147343357611771e-17 1.853129909039024452e-15 0.000000000000000000e+00 0.000000000000000000e+00 0.000000000000000000e+00 0.000000000000000000e+00 -1.385270103995254002e-15 6.104165948667537300e-15 0.000000000000000000e+00 -9.646758217823330929e-16 5.134998307767659645e-15 -2.430818776888784800e-15 1.362147343357611771e-17 1.853129909039024452e-15 0.000000000000000000e+00 0.000000000000000000e+00 0.000000000000000000e+00 0.000000000000000000e+00 -3.306432233055272447e-15 8.433675246826759161e-15 0.000000000000000000e+00 -2.247032739323354214e-15 3.792491376304363334e-15
